<?xml version="1.0" encoding="utf-8" ?><svg xmlns="http://www.w3.org/2000/svg" xmlns:xlink="http://www.w3.org/1999/xlink" width="496" height="120"><rect fill="#18181B" width="496" height="120" rx="4" ry="4"/><circle fill="#22D3EE" transform="matrix(1 0 0 1 10 40)" cx="2" cy="2" r="2"/><circle fill="#22D3EE" transform="matrix(1 0 0 1 60 30)" cx="2" cy="2" r="2"/><circle fill="#22D3EE" transform="matrix(1 0 0 1 110 55)" cx="2" cy="2" r="2"/><circle fill="#22D3EE" transform="matrix(1 0 0 1 160 25)" cx="2" cy="2" r="2"/><circle fill="#22D3EE" transform="matrix(1 0 0 1 210 45)" cx="2" cy="2" r="2"/><circle fill="#F59E0B" transform="matrix(1 0 0 1 260 35)" cx="2" cy="2" r="2"/><circle fill="#22D3EE" transform="matrix(1 0 0 1 310 20)" cx="2" cy="2" r="2"/><circle fill="#22D3EE" transform="matrix(1 0 0 1 360 40)" cx="2" cy="2" r="2"/><circle fill="#22D3EE" transform="matrix(1 0 0 1 410 30)" cx="2" cy="2" r="2"/><circle fill="#22D3EE" transform="matrix(1 0 0 1 460 50)" cx="2" cy="2" r="2"/></svg>