<?xml version="1.0" encoding="utf-8" ?><svg xmlns="http://www.w3.org/2000/svg" xmlns:xlink="http://www.w3.org/1999/xlink" width="496" height="120"><rect fill="#18181B" width="496" height="120" rx="4" ry="4"/><rect fill="#7C3AED" transform="matrix(1 0 0 1 20 40)" width="12" height="80" rx="2" ry="2"/><rect fill="#22D3EE" transform="matrix(1 0 0 1 44 55)" width="12" height="65" rx="2" ry="2"/><rect fill="#7C3AED" transform="matrix(1 0 0 1 68 30)" width="12" height="90" rx="2" ry="2"/><rect fill="#22D3EE" transform="matrix(1 0 0 1 92 65)" width="12" height="55" rx="2" ry="2"/><rect fill="#10B981" transform="matrix(1 0 0 1 116 25)" width="12" height="95" rx="2" ry="2"/><rect fill="#7C3AED" transform="matrix(1 0 0 1 140 48)" width="12" height="72" rx="2" ry="2"/></svg>